<?xml version="1.0" encoding="utf-8"?>
<!-- Generator: Adobe Illustrator 18.1.1, SVG Export Plug-In . SVG Version: 6.00 Build 0)  -->
<svg version="1.1" id="Layer_1" xmlns="http://www.w3.org/2000/svg" xmlns:xlink="http://www.w3.org/1999/xlink" x="0px" y="0px"
	 viewBox="0 0 16 24.3" enable-background="new 0 0 16 24.3" xml:space="preserve">
<g>
	<path d="M11,20.1H5c-0.4,0-0.7,0.3-0.7,0.7c0,0.4,0.3,0.7,0.7,0.7H11c0.4,0,0.7-0.3,0.7-0.7C11.7,20.4,11.4,20.1,11,20.1z"/>
	<path d="M11,22.2H5c-0.4,0-0.7,0.3-0.7,0.7c0,0.4,0.3,0.7,0.7,0.7h0.9c0.1,0.4,0.5,0.7,1,0.7h2.2c0.5,0,0.9-0.3,1-0.7H11
		c0.4,0,0.7-0.3,0.7-0.7C11.7,22.5,11.4,22.2,11,22.2z"/>
	<g>
		<path d="M8,0C3.6,0,0,3.6,0,8c0,2,1.3,4.1,1.6,4.7c0,0,0.6,0.9,0.6,0.9c1,1.6,2,3.1,2.2,4.9c0,0.4,0.4,0.7,0.8,0.7H11
			c0.4,0,0.7-0.3,0.8-0.7c0.2-2,1.2-3.6,2.3-5.2l0.4-0.6C14.7,12.1,16,10,16,8C16,3.6,12.4,0,8,0z M9.5,8.7
			c-0.6,1.3-1.9,2.1-3.3,2.1c-0.3,0-0.5,0-0.8-0.1c0,0.2,0,0.4,0.1,0.6c0.1,0.5,0.3,0.9,0.6,1.3c0.1,0.1,0.1,0.3,0.1,0.4
			c0,0.1-0.1,0.2-0.1,0.2c-0.1,0.1-0.2,0.1-0.3,0.1c-0.1,0-0.3-0.1-0.3-0.2c-0.6-0.7-0.9-1.6-0.9-2.6c0-0.3,0-0.6,0.1-0.9
			c0,0,0,0,0,0C4.8,9,5.1,8.4,5.6,7.9C5.8,7.7,6,7.5,6.2,7.4c0.1-0.1,0-0.3,0-0.4C6,6.8,5.8,6.7,5.6,6.9C4.7,7.5,4.1,8.4,3.9,9.5
			c0,0.2,0,0.3-0.1,0.5c-1.2-1-1.7-2.8-1-4.3c0,0,0-0.1,0.1-0.1C3.9,3.7,5.8,2.4,8,2.4c0.1,0,0.3,0,0.4,0l1.3,3.4
			C10,6.8,10,7.8,9.5,8.7z"/>
	</g>
</g>
</svg>
