<?xml version="1.0" encoding="utf-8"?>
<!-- Generator: Adobe Illustrator 18.1.1, SVG Export Plug-In . SVG Version: 6.00 Build 0)  -->
<svg version="1.1" id="Layer_1" xmlns="http://www.w3.org/2000/svg" xmlns:xlink="http://www.w3.org/1999/xlink" x="0px" y="0px"
	 viewBox="0 0 16.1 16.1" enable-background="new 0 0 16.1 16.1" xml:space="preserve">
<g>
	<path d="M15.9,9.2l-2.3-1c-0.2-0.1-0.2-0.2,0-0.3l2.3-1c0.2-0.1,0.2-0.2,0-0.2l-2.5-0.2c-0.2,0-0.3-0.2-0.1-0.3l1.9-1.6
		c0.2-0.1,0.1-0.2-0.1-0.2l-2.4,0.5c-0.2,0-0.3-0.1-0.2-0.3l1.3-2.1c0.1-0.2,0.1-0.3-0.1-0.1l-2.1,1.3c-0.2,0.1-0.3,0-0.3-0.2
		L11.7,1c0-0.2,0-0.3-0.2-0.1L9.9,2.8C9.8,2.9,9.6,2.9,9.6,2.6L9.4,0.2c0-0.2-0.1-0.2-0.2,0l-1,2.3C8.1,2.6,8,2.6,7.9,2.4l-1-2.3
		C6.8-0.1,6.7,0,6.7,0.2L6.5,2.6c0,0.2-0.2,0.3-0.3,0.1L4.5,0.9C4.4,0.7,4.3,0.8,4.3,1l0.5,2.4c0,0.2-0.1,0.3-0.3,0.2L2.5,2.3
		C2.3,2.2,2.2,2.3,2.3,2.5l1.3,2.1c0.1,0.2,0,0.3-0.2,0.3L1,4.3c-0.2,0-0.3,0-0.1,0.2l1.9,1.6c0.2,0.1,0.1,0.3-0.1,0.3L0.2,6.7
		c-0.2,0-0.2,0.1,0,0.2l2.3,1c0.2,0.1,0.2,0.2,0,0.3l-2.3,1c-0.2,0.1-0.2,0.2,0,0.2l2.5,0.2c0.2,0,0.3,0.2,0.1,0.3l-1.9,1.6
		c-0.2,0.1-0.1,0.2,0.1,0.2l2.4-0.5c0.2,0,0.3,0.1,0.2,0.3l-1.3,2.1c-0.1,0.2-0.1,0.3,0.1,0.1l2.1-1.3c0.2-0.1,0.3,0,0.3,0.2
		l-0.5,2.4c0,0.2,0,0.3,0.2,0.1l1.6-1.9c0.1-0.2,0.3-0.1,0.3,0.1l0.2,2.5c0,0.2,0.1,0.2,0.2,0l1-2.3c0.1-0.2,0.2-0.2,0.3,0l1,2.3
		c0.1,0.2,0.2,0.2,0.2,0l0.2-2.5c0-0.2,0.2-0.3,0.3-0.1l1.6,1.9c0.1,0.2,0.2,0.1,0.2-0.1l-0.5-2.4c0-0.2,0.1-0.3,0.3-0.2l2.1,1.3
		c0.2,0.1,0.3,0.1,0.1-0.1l-1.3-2.1c-0.1-0.2,0-0.3,0.2-0.3l2.4,0.5c0.2,0,0.3,0,0.1-0.2l-1.9-1.6c-0.2-0.1-0.1-0.3,0.1-0.3l2.5-0.2
		C16.1,9.4,16.1,9.3,15.9,9.2z M10.7,10.7c-1.5,1.5-3.9,1.5-5.3,0C4.7,10,4.3,9.2,4.2,8.3l-0.6,0l1.7-1.7l1.7,1.7H6.5
		c0,1.5,1.3,2.8,2.8,2.8c0.6,0,1.1-0.2,1.5-0.4C10.8,10.6,10.7,10.7,10.7,10.7z M10.7,9.5L9,7.8h0.6c0-1.5-1.3-2.8-2.8-2.8
		c-0.6,0-1.1,0.2-1.5,0.4c0,0,0.1-0.1,0.1-0.1c1.5-1.5,3.9-1.5,5.3,0c0.7,0.7,1.1,1.6,1.1,2.5l0.6,0L10.7,9.5z"/>
</g>
</svg>
