<?xml version="1.0" encoding="utf-8"?>
<!-- Generator: Adobe Illustrator 18.1.1, SVG Export Plug-In . SVG Version: 6.00 Build 0)  -->
<svg version="1.1" id="Layer_1" xmlns="http://www.w3.org/2000/svg" xmlns:xlink="http://www.w3.org/1999/xlink" x="0px" y="0px"
	 viewBox="0 0 16 11.3" enable-background="new 0 0 16 11.3" xml:space="preserve">
<g>
	<path d="M15.5,8.3h-1V6.9c0-1.1-0.9-2-2-2h-0.4c0,0,0,0,0,0C12.2,2.2,10,0,7.3,0C4.6,0,2.4,2.2,2.4,4.9c0,0,0,0,0,0H2
		c-1.1,0-2,0.9-2,2v1.7C0,9,0.3,9.3,0.7,9.3H1c0.1-1.4,1.2-2.5,2.7-2.5c0.9,0,1.8,0.5,2.2,1.2c0,0,0,0,0,0c0.2-0.1,0.4-0.3,0.6-0.4
		c0.1-0.1,0.2-0.3,0.3-0.4C6.2,7,5.7,6.7,5.3,6.3c-0.4-0.5-0.6-1-0.6-1.7c0-0.6,0.2-1.2,0.6-1.6c0.1-0.1,0.1-0.1,0.2-0.2l1.8-1.8
		l1.8,1.8c0.5,0.5,0.8,1.1,0.8,1.8c0,1.1-0.7,2.1-1.7,2.4c0.1-0.2,0.1-0.3,0.1-0.5C8.4,5.7,8.1,5,7.7,4.4c-0.1-0.1-0.3-0.1-0.4,0
		c-0.1,0.1-0.1,0.3,0,0.4c0.4,0.5,0.6,1.1,0.5,1.7c0,0.3-0.1,0.5-0.2,0.7c0,0,0,0,0,0c0,0,0,0,0,0C7.4,7.5,7.2,7.7,6.9,8
		C6.7,8.2,6.5,8.4,6.2,8.5C6.3,8.8,6.3,9,6.3,9.3h1.9c0-1.4,1.2-2.6,2.7-2.6c1.4,0,2.6,1.2,2.7,2.6h1l1,0c0.3,0,0.5-0.2,0.5-0.5
		C16,8.6,15.8,8.3,15.5,8.3z"/>
	<path d="M5,8.1C4.7,7.8,4.2,7.5,3.7,7.5c-0.5,0-1,0.2-1.3,0.6C2,8.4,1.8,8.9,1.8,9.4c0,0.5,0.2,1,0.6,1.3c0.3,0.3,0.8,0.6,1.3,0.6
		c0.5,0,1-0.2,1.3-0.6c0.3-0.3,0.6-0.8,0.6-1.3C5.6,8.9,5.4,8.4,5,8.1z M4.5,9.4c0,0.4-0.4,0.8-0.8,0.8c-0.4,0-0.8-0.4-0.8-0.8
		c0-0.4,0.4-0.8,0.8-0.8C4.1,8.6,4.5,9,4.5,9.4z"/>
	<path d="M12.2,8c-0.3-0.3-0.8-0.6-1.3-0.6c-0.5,0-1,0.2-1.3,0.6C9.2,8.4,9,8.8,9,9.4c0,0.5,0.2,1,0.6,1.3c0.3,0.3,0.8,0.6,1.3,0.6
		s1-0.2,1.3-0.6c0.3-0.3,0.6-0.8,0.6-1.3C12.8,8.8,12.6,8.4,12.2,8z M10.9,10.2c-0.4,0-0.8-0.4-0.8-0.8c0-0.4,0.4-0.8,0.8-0.8
		c0.4,0,0.8,0.4,0.8,0.8C11.7,9.8,11.3,10.2,10.9,10.2z"/>
</g>
</svg>
